#!OML:ASF H:\Pregnant\Project 1\Capture day 1\Session 1\femalepreg.ASF
:FULLY-SPECIFIED
:DEGREES
432
root 3.75426 15.0749 31.1395 113.748 -84.7224 -90.6889
lowerback -12.5602 2.13689 -2.32251
upperback -7.10169 2.73391 1.25352
thorax -0.588392 1.32424 2.9279
lowerneck -22.7119 5.83376 8.1102
upperneck 17.9069 -1.51674 23.919
head 10.0931 2.24301 7.10229
rclavicle -1.97542e-015 2.38542e-015
rhumerus -42.0635 8.94495 -84.0721
rradius 97.7641
rwrist -79.0179
rhand 19.0359 -42.8227
rfingers 7.12502
rthumb 43.6359 -66.84
lclavicle -1.97542e-015 2.38542e-015
lhumerus -22.209 5.45991 77.979
lradius 81.039
lwrist 84.1024
lhand -2.19328 13.4981
lfingers 7.12502
lthumb 23.488 42.0842
rfemur -45.9404 -6.10516 17.6152
rtibia 62.2044
rfoot -13.2433 -1.0119
rtoes -23.0184
lfemur -47.4403 -4.58559 -13.8475
ltibia 39.2018
lfoot -10.6256 4.49517
ltoes -13.5481
433
root 3.77836 15.0629 31.0833 112.175 -84.6836 -89.0461
lowerback -12.5613 2.17795 -2.34758
upperback -7.07156 2.79388 1.27172
thorax -0.56259 1.35598 2.96838
lowerneck -22.6406 5.85341 8.23219
upperneck 18.0795 -1.55786 23.8916
head 10.1492 2.24168 7.07671
rclavicle -5.36967e-014 -1.19271e-014
rhumerus -42.9886 9.26793 -84.1935
rradius 96.7892
rwrist -78.2528
rhand 19.9261 -43.2224
rfingers 7.12502
rthumb 44.4662 -66.9292
lclavicle -5.36967e-014 -1.19271e-014
lhumerus -22.1809 6.72177 77.503
lradius 80.6446
lwrist 84.4609
lhand -2.26807 13.535
lfingers 7.12502
lthumb 23.4163 42.1303
rfemur -45.4215 -6.08155 17.4814
rtibia 61.0532
rfoot -13.3317 -2.47911
rtoes -23.1662
lfemur -47.8233 -4.48797 -13.5626
ltibia 39.5123
lfoot -10.7119 4.37921
ltoes -13.6571
434
root 3.80343 15.0502 31.0252 110.688 -84.635 -87.4852
lowerback -12.5665 2.20349 -2.39667
upperback -7.04151 2.83537 1.30953
thorax -0.536016 1.37939 3.04094
lowerneck -22.5471 5.88284 8.32805
upperneck 18.2519 -1.57831 23.8879
head 10.1991 2.24885 7.06643
rclavicle -4.72114e-016 2.98177e-015
rhumerus -43.8869 9.54844 -84.2662
rradius 95.6532
rwrist -77.5172
rhand 20.8735 -43.5966
rfingers 7.12502
rthumb 45.3479 -66.9578
lclavicle -4.72114e-016 2.98177e-015
lhumerus -22.1464 8.03645 76.9884
lradius 80.1929
lwrist 84.7347
lhand -2.22983 13.6502
lfingers 7.12502
lthumb 23.4529 42.2408
rfemur -44.9123 -6.02167 17.3751
rtibia 59.9444
rfoot -13.3689 -3.97899
rtoes -23.1688
lfemur -48.2257 -4.34118 -13.2812
ltibia 39.8474
lfoot -10.8093 4.22778
ltoes -13.7763
435
root 3.82967 15.0357 30.9653 108.965 -84.57 -85.695
lowerback -12.56 2.21453 -2.4413
upperback -7.00856 2.85714 1.35769
thorax -0.511629 1.39303 3.11917
lowerneck -22.4453 5.93008 8.45435
upperneck 18.4427 -1.58245 23.8636
head 10.2524 2.26491 7.04681
rclavicle -1.64494e-014 1.90833e-014
rhumerus -44.7558 9.74426 -84.2928
rradius 94.3729
rwrist -76.8636
rhand 21.7931 -43.9556
rfingers 7.12502
rthumb 46.2017 -66.9657
lclavicle -1.64494e-014 1.90833e-014
lhumerus -22.0886 9.3947 76.4359
lradius 79.6824
lwrist 84.9351
lhand -2.0965 13.9321
lfingers 7.12502
lthumb 23.5808 42.5063
rfemur -44.394 -5.94637 17.2999
rtibia 58.876
rfoot -13.4815 -5.18678
rtoes -23.161
lfemur -48.6535 -4.19513 -12.9803
ltibia 40.2119
lfoot -10.9046 4.06114
ltoes -13.9177
436
root 3.85705 15.0195 30.9041 107.004 -84.4971 -83.6753
lowerback -12.5405 2.20416 -2.48948
upperback -6.97011 2.85095 1.4184
thorax -0.487414 1.39304 3.20894
lowerneck -22.3307 5.98536 8.55209
upperneck 18.6291 -1.57214 23.8751
head 10.3011 2.28759 7.04702
rclavicle -4.05024e-015 1.23246e-014
rhumerus -45.5787 9.86221 -84.2584
rradius 92.944
rwrist -76.3079
rhand 22.699 -44.2897
rfingers 7.12502
rthumb 47.0406 -66.938
lclavicle -4.05024e-015 1.23246e-014
lhumerus -22.0158 10.8126 75.8456
lradius 79.116
lwrist 85.0858
lhand -1.94295 14.1946
lfingers 7.12502
lthumb 23.7281 42.7498
rfemur -43.8648 -5.87756 17.2407
rtibia 57.8489
rfoot -13.7617 -5.86399
rtoes -23.4071
lfemur -49.1019 -4.06077 -12.6712
ltibia 40.6037
lfoot -10.9983 3.88246
ltoes -14.0627
437
root 3.88557 15.0011 30.8413 104.759 -84.4139 -81.3827
lowerback -12.4999 2.18047 -2.53558
upperback -6.92533 2.82706 1.4883
thorax -0.466804 1.38449 3.30444
lowerneck -22.2133 6.04774 8.63624
upperneck 18.8155 -1.54711 23.891
head 10.3477 2.31643 7.05325
rclavicle 3.89618e-014 -5.1684e-015
rhumerus -46.3595 9.88533 -84.1357
rradius 91.3915
rwrist -75.8617
rhand 23.5544 -44.607
rfingers 7.12502
rthumb 47.8307 -66.8984
lclavicle 3.89618e-014 -5.1684e-015
lhumerus -21.9239 12.2696 75.2319
lradius 78.5019
lwrist 85.2105
lhand -1.8203 14.4524
lfingers 7.12502
lthumb 23.8457 42.9923
rfemur -43.3225 -5.82478 17.2045
rtibia 56.8642
rfoot -14.239 -5.93591
rtoes -24.3841
lfemur -49.5691 -3.94901 -12.3506
ltibia 41.0221
lfoot -11.094 3.69355
ltoes -14.2082
438
root 3.9153 14.9803 30.7773 102.072 -84.315 -78.6605
lowerback -12.437 2.1417 -2.56409
upperback -6.87485 2.78156 1.55884
thorax -0.449479 1.3648 3.38751
lowerneck -22.0867 6.11155 8.71971
upperneck 18.9936 -1.51602 23.9074
head 10.3888 2.34667 7.05956
rclavicle -2.46245e-014 -1.5704e-014
rhumerus -47.0971 9.79719 -83.9323
rradius 89.7252
rwrist -75.5099
rhand 24.3808 -44.8979
rfingers 7.12502
rthumb 48.592 -66.8297
lclavicle -2.46245e-014 -1.5704e-014
lhumerus -21.8076 13.7558 74.5921
lradius 77.8406
lwrist 85.3053
lhand -1.82093 14.5516
lfingers 7.12502
lthumb 23.8451 43.0915
rfemur -42.7693 -5.82017 17.2042
rtibia 55.9322
rfoot -14.9473 -5.4254
rtoes -25.8509
lfemur -50.0589 -3.87672 -12.0138
ltibia 41.4623
lfoot -11.1884 3.49256
ltoes -14.3849
439
root 3.94616 14.9577 30.7116 99.1725 -84.1971 -75.724
lowerback -12.3663 2.09136 -2.58454
upperback -6.82458 2.71977 1.62928
thorax -0.434623 1.33674 3.46388
lowerneck -21.9322 6.17948 8.79428
upperneck 19.1517 -1.46911 23.9372
head 10.4157 2.38113 7.07167
rclavicle 7.82715e-015 9.34288e-015
rhumerus -47.799 9.59605 -83.6429
rradius 87.9566
rwrist -75.2139
rhand 25.1991 -45.1498
rfingers 7.12502
rthumb 49.3439 -66.7104
lclavicle 7.82715e-015 9.34288e-015
lhumerus -21.6687 15.2857 73.9329
lradius 77.1418
lwrist 85.3509
lhand -2.00105 14.5245
lfingers 7.12502
lthumb 23.6724 43.0869
rfemur -42.2312 -5.85762 17.2554
rtibia 55.0677
rfoot -15.8602 -4.52482
rtoes -27.4607
lfemur -50.5794 -3.81246 -11.6676
ltibia 41.925
lfoot -11.2934 3.26572
ltoes -14.5287
440
root 3.9782 14.9332 30.6441 96.1583 -84.0548 -72.6659
lowerback -12.313 2.03409 -2.56389
upperback -6.75901 2.64591 1.67077
thorax -0.389419 1.30045 3.48667
lowerneck -21.7608 6.25941 8.8943
upperneck 19.2705 -1.40576 23.9793
head 10.4243 2.4209 7.08284
rclavicle 3.90115e-015 1.41137e-014
rhumerus -48.4343 9.24594 -83.293
rradius 86.09
rwrist -74.9143
rhand 26.0699 -45.3967
rfingers 7.12502
rthumb 50.1416 -66.5448
lclavicle 3.90115e-015 1.41137e-014
lhumerus -21.4728 16.8601 73.2159
lradius 76.4069
lwrist 85.3094
lhand -2.36552 14.3442
lfingers 7.12502
lthumb 23.3228 42.9514
rfemur -41.7309 -5.94031 17.3749
rtibia 54.2924
rfoot -16.9181 -3.43138
rtoes -28.8574
lfemur -51.1351 -3.73382 -11.3164
ltibia 42.409
lfoot -11.4103 2.99758
ltoes -14.6616
441
root 4.01197 14.9059 30.576 92.7728 -83.8779 -69.2145
lowerback -12.28 1.9613 -2.47639
upperback -6.68744 2.54553 1.67451
thorax -0.319346 1.24788 3.43036
lowerneck -21.5659 6.35333 9.03397
upperneck 19.3517 -1.32913 24.0375
head 10.4148 2.46548 7.09164
rclavicle 9.11925e-015 1.61016e-014
rhumerus -49.0048 8.71659 -82.891
rradius 84.1202
rwrist -74.5566
rhand 26.9802 -45.5799
rfingers 7.12502
rthumb 50.9727 -66.2765
lclavicle 9.11925e-015 1.61016e-014
lhumerus -21.2196 18.4679 72.4355
lradius 75.6384
lwrist 85.1799
lhand -2.90415 14.1654
lfingers 7.12502
lthumb 22.806 42.8372
rfemur -41.3005 -6.12561 17.5847
rtibia 53.6268
rfoot -18.0651 -2.31689
rtoes -29.5765
lfemur -51.7634 -3.66666 -10.9551
ltibia 42.9216
lfoot -11.5275 2.68176
ltoes -14.7562
442
root 4.04784 14.8752 30.5084 88.9404 -83.6696 -65.2746
lowerback -12.2819 1.86483 -2.32772
upperback -6.61389 2.40816 1.6395
thorax -0.221011 1.17395 3.29627
lowerneck -21.3537 6.46063 9.20188
upperneck 19.3985 -1.23673 24.1107
head 10.3891 2.5158 7.10025
rclavicle -9.61621e-015 2.54444e-014
rhumerus -49.5099 8.01873 -82.4164
rradius 82.0589
rwrist -74.1281
rhand 27.925 -45.7289
rfingers 7.12502
rthumb 51.8321 -65.9338
lclavicle -9.61621e-015 2.54444e-014
lhumerus -20.9194 20.0877 71.5926
lradius 74.8415
lwrist 85.0081
lhand -3.65301 13.8947
lfingers 7.12502
lthumb 22.0871 42.6532
rfemur -40.981 -6.45713 17.8871
rtibia 53.0856
rfoot -19.2273 -1.37431
rtoes -29.7915
lfemur -52.4923 -3.61194 -10.6058
ltibia 43.4635
lfoot -11.6378 2.30461
ltoes -14.8523
443
root 4.08599 14.8409 30.4401 85.0541 -83.4134 -61.2378
lowerback -12.3143 1.75447 -2.13452
upperback -6.54253 2.24788 1.57947
thorax -0.104775 1.08677 3.10913
lowerneck -21.131 6.57761 9.39431
upperneck 19.4193 -1.13432 24.1949
head 10.352 2.5698 7.10797
rclavicle 2.11706e-014 1.41137e-014
rhumerus -49.9594 7.1626 -81.8552
rradius 79.9167
rwrist -73.6302
rhand 28.8677 -45.8455
rfingers 7.12502
rthumb 52.6861 -65.5346
lclavicle 2.11706e-014 1.41137e-014
lhumerus -20.5759 21.7095 70.6994
lradius 74.0222
lwrist 84.8387
lhand -4.58957 13.7312
lfingers 7.12502
lthumb 21.1877 42.5934
rfemur -40.8018 -6.92179 18.3028
rtibia 52.668
rfoot -20.3931 -0.615393
rtoes -29.4858
lfemur -53.3237 -3.56233 -10.2445
ltibia 44.0413
lfoot -11.737 1.89998
ltoes -14.9798
444
root 4.12595 14.8033 30.3705 81.2266 -83.1088 -57.2424
lowerback -12.3451 1.62792 -1.93222
upperback -6.47158 2.06488 1.52035
thorax 0.0103071 0.988395 2.91466
lowerneck -20.9049 6.6978 9.57806
upperneck 19.4283 -1.02197 24.2874
head 10.309 2.6269 7.12035
rclavicle 8.94531e-015 3.97569e-015
rhumerus -50.3626 6.17804 -81.1713
rradius 77.7046
rwrist -73.0772
rhand 29.7257 -45.9566
rfingers 7.12502
rthumb 53.4602 -65.1532
lclavicle 8.94531e-015 3.97569e-015
lhumerus -20.2168 23.2933 69.7691
lradius 73.1802
lwrist 84.7602
lhand -5.68928 13.6775
lfingers 7.12502
lthumb 20.131 42.6545
rfemur -40.7338 -7.49041 18.8185
rtibia 52.3583
rfoot -21.5321 -0.108451
rtoes -28.8805
lfemur -54.2229 -3.52389 -9.87312
ltibia 44.6537
lfoot -11.8313 1.48021
ltoes -15.1557
